<svg id="visual" viewBox="0 0 900 600" width="900" height="600" xmlns="http://www.w3.org/2000/svg" xmlns:xlink="http://www.w3.org/1999/xlink" version="1.1"><rect x="0" y="0" width="900" height="600" fill="#2a2f2e"></rect><g transform="translate(440.4013085994932 353.89182568623653)"><path d="M112 -188.3C144.8 -153.3 170.6 -121.5 198.3 -83.8C226 -46.2 255.5 -2.6 245.7 32.2C235.9 67.1 186.7 93.1 144.5 104.3C102.3 115.4 67 111.7 35.7 120.1C4.5 128.6 -22.7 149.2 -44.8 145.8C-67 142.5 -84.1 115.1 -123.7 93.7C-163.2 72.3 -225.1 56.8 -228.3 33C-231.4 9.2 -175.7 -22.8 -141.9 -51.4C-108 -80 -95.9 -105.2 -75.9 -146.1C-55.9 -186.9 -27.9 -243.5 5.9 -252.6C39.6 -261.7 79.3 -223.4 112 -188.3" fill="#67b397"></path></g></svg>