<svg id="visual" viewBox="0 0 900 600" width="900" height="600" xmlns="http://www.w3.org/2000/svg" xmlns:xlink="http://www.w3.org/1999/xlink" version="1.1"><rect x="0" y="0" width="900" height="600" fill="#2a2f2e"></rect><g transform="translate(343.2455042437147 319.9482623421655)"><path d="M339.9 -518.6C487.7 -433.9 687.3 -419.5 774.2 -325.3C861.2 -231.2 835.4 -57.4 742 57.3C648.6 171.9 487.5 227.4 396 355.9C304.5 484.4 282.6 686 205.5 716.1C128.4 746.2 -3.9 604.8 -108.1 509.6C-212.4 414.4 -288.7 365.3 -390.4 306C-492.1 246.6 -619.2 177 -613.8 98.9C-608.4 20.9 -470.5 -65.5 -395.4 -160.1C-320.3 -254.6 -308 -357.4 -252.6 -484.3C-197.2 -611.1 -98.6 -762.1 -1.3 -760.1C96.1 -758.1 192.1 -603.3 339.9 -518.6" fill="#67b397"></path></g></svg>