<svg id="visual" viewBox="0 0 900 600" width="900" height="600" xmlns="http://www.w3.org/2000/svg" xmlns:xlink="http://www.w3.org/1999/xlink" version="1.1"><g transform="translate(468.03090366047843 295.994600059214)"><path d="M124.1 -179.8C165.4 -166.7 206.4 -139.8 219.8 -102.7C233.2 -65.5 219.1 -18 189.6 11C160.2 40.1 115.5 50.8 94.8 91.4C74 132.1 77.1 202.8 52 238.1C26.8 273.5 -26.8 273.5 -76.5 259.4C-126.3 245.4 -172.4 217.3 -207.7 178.7C-242.9 140.2 -267.5 91.1 -259.4 46.6C-251.4 2.1 -210.7 -37.8 -195.9 -97.4C-181 -156.9 -191.9 -236.2 -163.5 -255.3C-135.2 -274.3 -67.6 -233.2 -13.1 -212.8C41.4 -192.5 82.9 -193 124.1 -179.8" fill="#0ec9a7"></path></g></svg>