<svg id="visual" viewBox="0 0 900 600" width="900" height="600" xmlns="http://www.w3.org/2000/svg" xmlns:xlink="http://www.w3.org/1999/xlink" version="1.1"><rect x="0" y="0" width="900" height="600" fill="#2a2f2e"></rect><g transform="translate(483.15794738864975 179.66012148594564)"><path d="M337.1 -547.9C405.3 -480.7 407.3 -333.8 426.1 -216.9C444.8 -99.9 480.2 -12.9 563.2 149.2C646.1 311.4 776.5 548.6 725 653.5C673.4 758.3 440 730.8 242.9 756.2C45.8 781.7 -114.9 860 -257.7 836.8C-400.6 813.5 -525.6 688.7 -632.8 554.3C-740 419.9 -829.3 276 -795.9 147.7C-762.5 19.5 -606.4 -93.1 -513.6 -209C-420.9 -325 -391.6 -444.3 -316.5 -508.4C-241.5 -572.4 -120.7 -581.2 6.8 -591.9C134.4 -602.5 268.9 -615.1 337.1 -547.9" fill="#67b397"></path></g></svg>