<svg id="visual" viewBox="0 0 900 600" width="900" height="600" xmlns="http://www.w3.org/2000/svg" xmlns:xlink="http://www.w3.org/1999/xlink" version="1.1"><g transform="translate(476.9547736437038 342.532894010639)"><path d="M130.1 -162.7C179.8 -113.3 239.1 -83 250.2 -41C261.3 0.9 224.2 54.5 186.1 95.3C148.1 136.2 109.1 164.4 64.6 182.9C20.2 201.4 -29.8 210.2 -74.6 197.2C-119.5 184.3 -159.4 149.6 -207.6 102.3C-255.9 55 -312.6 -5.1 -305.5 -55.4C-298.5 -105.7 -227.7 -146.3 -166.1 -193.6C-104.6 -240.9 -52.3 -295 -6.1 -287.8C40.2 -280.5 80.4 -212.1 130.1 -162.7" fill="#0ec9a7"></path></g></svg>