<svg id="visual" viewBox="0 0 900 600" width="900" height="600" xmlns="http://www.w3.org/2000/svg" xmlns:xlink="http://www.w3.org/1999/xlink" version="1.1"><rect x="0" y="0" width="900" height="600" fill="#2a2f2e"></rect><g transform="translate(416.4474791375096 308.44691192654864)"><path d="M200 -239.9C283.1 -168.7 390.7 -128.3 407.6 -66.8C424.6 -5.2 350.9 77.4 297.7 174.2C244.6 271.1 212.1 382.2 154.5 386.9C96.9 391.5 14.3 289.7 -55.7 230.6C-125.6 171.5 -182.7 155 -240.9 111.4C-299.1 67.8 -358.3 -2.9 -339.4 -51.1C-320.6 -99.4 -223.6 -125.1 -154 -198.7C-84.4 -272.2 -42.2 -393.6 8.2 -403.3C58.5 -413 117 -311.1 200 -239.9" fill="#67b397"></path></g></svg>