<svg id="visual" viewBox="0 0 900 600" width="900" height="600" xmlns="http://www.w3.org/2000/svg" xmlns:xlink="http://www.w3.org/1999/xlink" version="1.1"><rect x="0" y="0" width="900" height="600" fill="#2a2f2e"></rect><g transform="translate(463.61599062508265 328.1157466451625)"><path d="M199 -284.7C257.9 -271.9 305.4 -216.5 328.7 -153.6C352.1 -90.7 351.2 -20.1 342.6 50.2C333.9 120.5 317.3 190.5 271.7 225.6C226.1 260.8 151.4 260.9 93 245.4C34.7 230 -7.3 198.9 -67.8 196.8C-128.3 194.7 -207.4 221.4 -273.4 204.1C-339.4 186.8 -392.4 125.4 -370.3 72.4C-348.1 19.3 -250.8 -25.4 -216.9 -98.9C-183.1 -172.4 -212.6 -274.6 -187.1 -302.6C-161.5 -330.6 -80.7 -284.3 -5.3 -276C70.1 -267.7 140.2 -297.5 199 -284.7" fill="#67b397"></path></g></svg>