<svg id="visual" viewBox="0 0 900 600" width="900" height="600" xmlns="http://www.w3.org/2000/svg" xmlns:xlink="http://www.w3.org/1999/xlink" version="1.1"><g transform="translate(373.6437705581221 298.73014214222394)"><path d="M231.2 -383.6C265.6 -337.6 236.1 -216 285.8 -125.2C335.6 -34.4 464.8 25.5 449.2 57.6C433.7 89.7 273.5 94 194.5 147.5C115.4 201.1 117.4 304 77.2 360.2C37 416.4 -45.5 426 -93.1 382.2C-140.7 338.4 -153.5 241.2 -189.6 176.9C-225.7 112.6 -285.1 81 -295.9 39.4C-306.7 -2.2 -268.9 -53.8 -238.6 -104.3C-208.3 -154.7 -185.5 -204 -147 -248.1C-108.5 -292.1 -54.2 -331.1 22.1 -365.4C98.4 -399.8 196.8 -429.5 231.2 -383.6" fill="#0ec9a7"></path></g></svg>